<?xml version="1.0" encoding="utf-8"?>
<!-- Generator: Adobe Illustrator 24.3.0, SVG Export Plug-In . SVG Version: 6.00 Build 0)  -->
<svg version="1.1" id="レイヤー_1" xmlns="http://www.w3.org/2000/svg" xmlns:xlink="http://www.w3.org/1999/xlink" x="0px"
	 y="0px" viewBox="0 0 620 439" style="enable-background:new 0 0 620 439;" xml:space="preserve">
<style type="text/css">
	.st0{fill:#333333;}
	.st1{fill:#DD0063;}
	.st2{fill:#FFFFFF;}
	.st3{fill:#E6E6E6;}
</style>
<g>
	<g>
		<path class="st0" d="M53.16,256.85c70.87,70.87,185.78,70.88,256.66,0.01L53.15,0.19C-17.72,71.07-17.72,185.97,53.16,256.85z"/>
		<circle class="st3" cx="107.6" cy="186.09" r="93.2"/>
	</g>
	<g>
		<path class="st0" d="M566.84,0.19C566.84,0.19,566.84,0.19,566.84,0.19L310.17,256.85c0,0,0,0,0.01,0.01
			c70.88,70.88,185.79,70.88,256.66,0C637.72,185.98,637.72,71.07,566.84,0.19z"/>
		<circle class="st3" cx="512.4" cy="186.1" r="93.2"/>
	</g>
	<path class="st0" d="M473.25,439.19C443.81,330.71,381.77,255.96,310,255.96s-133.8,74.75-163.25,183.23H473.25z"/>
</g>
</svg>
