<?xml version="1.0" encoding="utf-8"?>
<!-- Generator: Adobe Illustrator 24.3.0, SVG Export Plug-In . SVG Version: 6.00 Build 0)  -->
<svg version="1.1" id="レイヤー_1" xmlns="http://www.w3.org/2000/svg" xmlns:xlink="http://www.w3.org/1999/xlink" x="0px"
	 y="0px" viewBox="0 0 400 400" style="enable-background:new 0 0 400 400;" xml:space="preserve">
<style type="text/css">
	.st0{fill-rule:evenodd;clip-rule:evenodd;fill:#191313;}
	.st1{fill:#191313;}
</style>
<g>
	<path class="st0" d="M200,4.9C89.6,4.9,0,94.5,0,204.9c0,88.4,57.3,163.3,136.8,189.8c10,1.9,13.7-4.3,13.7-9.6
		c0-4.8-0.2-20.5-0.3-37.2c-55.6,12.1-67.4-23.6-67.4-23.6C73.7,301.1,60.6,295,60.6,295c-18.1-12.4,1.4-12.2,1.4-12.2
		c20.1,1.4,30.7,20.6,30.7,20.6c17.8,30.6,46.8,21.7,58.2,16.6c1.8-12.9,7-21.8,12.7-26.7c-44.4-5.1-91.1-22.2-91.1-98.8
		c0-21.8,7.8-39.7,20.6-53.7c-2.1-5-8.9-25.4,1.9-52.9c0,0,16.8-5.4,55,20.5c16-4.4,33.1-6.7,50.1-6.7c17,0.1,34.1,2.3,50.1,6.7
		C288.3,82.5,305,87.9,305,87.9c10.9,27.5,4,47.9,2,52.9c12.8,14,20.6,31.8,20.6,53.7c0,76.8-46.8,93.7-91.3,98.7
		c7.2,6.2,13.6,18.4,13.6,37c0,26.8-0.2,48.3-0.2,54.9c0,5.3,3.6,11.6,13.7,9.6C342.8,368.2,400,293.3,400,204.9
		C400,94.5,310.5,4.9,200,4.9z"/>
	<path class="st1" d="M75.8,292.1c-0.4,1-2,1.3-3.4,0.6c-1.5-0.7-2.3-2-1.8-3c0.4-1,2-1.3,3.4-0.6C75.4,289.7,76.3,291.1,75.8,292.1
		L75.8,292.1z M73.3,290.3"/>
	<path class="st1" d="M83.9,301.1c-1,0.9-2.8,0.5-4.1-0.9c-1.3-1.4-1.6-3.3-0.6-4.2c1-0.9,2.8-0.5,4.1,0.9
		C84.6,298.4,84.8,300.2,83.9,301.1L83.9,301.1z M81.9,299.1"/>
	<path class="st1" d="M91.7,312.6c-1.2,0.9-3.2,0.1-4.5-1.7c-1.2-1.8-1.2-3.9,0-4.8c1.2-0.9,3.2-0.1,4.5,1.7
		C93,309.6,93,311.8,91.7,312.6L91.7,312.6z M91.7,312.6"/>
	<path class="st1" d="M102.5,323.8c-1.1,1.2-3.4,0.9-5.1-0.8c-1.7-1.6-2.2-3.9-1.1-5.1c1.1-1.2,3.5-0.9,5.2,0.8
		C103.2,320.3,103.7,322.6,102.5,323.8L102.5,323.8z M102.5,323.8"/>
	<path class="st1" d="M117.4,330.2c-0.5,1.6-2.7,2.3-5,1.6c-2.3-0.7-3.7-2.5-3.3-4.1c0.5-1.6,2.7-2.3,5-1.6
		C116.4,326.8,117.9,328.6,117.4,330.2L117.4,330.2z M117.4,330.2"/>
	<path class="st1" d="M133.8,331.4c0.1,1.6-1.9,3-4.2,3c-2.4,0.1-4.3-1.3-4.4-2.9c0-1.7,1.9-3,4.3-3.1
		C131.9,328.5,133.8,329.8,133.8,331.4L133.8,331.4z M133.8,331.4"/>
	<path class="st1" d="M149,328.8c0.3,1.6-1.4,3.3-3.7,3.7c-2.3,0.4-4.5-0.6-4.8-2.2c-0.3-1.6,1.4-3.3,3.7-3.7
		C146.6,326.2,148.7,327.2,149,328.8L149,328.8z M149,328.8"/>
</g>
</svg>
