<?xml version="1.0" encoding="utf-8"?>
<!-- Generator: Adobe Illustrator 24.3.0, SVG Export Plug-In . SVG Version: 6.00 Build 0)  -->
<svg version="1.1" id="レイヤー_1" xmlns="http://www.w3.org/2000/svg" xmlns:xlink="http://www.w3.org/1999/xlink" x="0px"
	 y="0px" viewBox="0 0 620 439" style="enable-background:new 0 0 620 439;" xml:space="preserve">
<style type="text/css">
	.st0{fill:#333333;}
	.st1{fill:#DD0063;}
	.st2{fill:#FFFFFF;}
	.st3{fill:#E6E6E6;}
	.st4{fill:#D34F91;}
</style>
<g>
	<ellipse class="st0" cx="-1319.4" cy="145.4" rx="140.1" ry="134.9"/>
	<g>
		<path class="st1" d="M-1394.1,97.6c0-10.5,8.6-18.6,22-18.6s22,7.4,22,17.9c0,11.2-8.6,19.2-22,19.2S-1394.1,108.1-1394.1,97.6z
			 M-1385.4,123.3h26.7c2.7,0,4.9,2.2,4.9,4.9v78.6c0,2.7-2.2,4.9-4.9,4.9h-26.7c-2.7,0-4.9-2.2-4.9-4.9v-78.6
			C-1390.4,125.5-1388.2,123.3-1385.4,123.3z"/>
		<path class="st1" d="M-1341.4,97.6c0-10.5,8.6-18.6,22-18.6s22,7.4,22,17.9c0,11.2-8.6,19.2-22,19.2S-1341.4,108.1-1341.4,97.6z
			 M-1332.7,123.3h26.7c2.7,0,4.9,2.2,4.9,4.9v78.6c0,2.7-2.2,4.9-4.9,4.9h-26.7c-2.7,0-4.9-2.2-4.9-4.9v-78.6
			C-1337.7,125.5-1335.4,123.3-1332.7,123.3z"/>
		<path class="st1" d="M-1288.7,97.6c0-10.5,8.6-18.6,22-18.6s22,7.4,22,17.9c0,11.2-8.6,19.2-22,19.2
			C-1280.1,116.2-1288.7,108.1-1288.7,97.6z M-1280,123.3h26.7c2.7,0,4.9,2.2,4.9,4.9v78.6c0,2.7-2.2,4.9-4.9,4.9h-26.7
			c-2.7,0-4.9-2.2-4.9-4.9v-78.6C-1284.9,125.5-1282.7,123.3-1280,123.3z"/>
	</g>
	<ellipse class="st0" cx="-1319.4" cy="145.4" rx="140.1" ry="134.9"/>
	<g>
		<path class="st2" d="M-1394.1,97.6c0-10.5,8.6-18.6,22-18.6s22,7.4,22,17.9c0,11.2-8.6,19.2-22,19.2S-1394.1,108.1-1394.1,97.6z
			 M-1385.4,123.3h26.7c2.7,0,4.9,2.2,4.9,4.9v78.6c0,2.7-2.2,4.9-4.9,4.9h-26.7c-2.7,0-4.9-2.2-4.9-4.9v-78.6
			C-1390.4,125.5-1388.2,123.3-1385.4,123.3z"/>
		<path class="st2" d="M-1341.4,97.6c0-10.5,8.6-18.6,22-18.6s22,7.4,22,17.9c0,11.2-8.6,19.2-22,19.2S-1341.4,108.1-1341.4,97.6z
			 M-1332.7,123.3h26.7c2.7,0,4.9,2.2,4.9,4.9v78.6c0,2.7-2.2,4.9-4.9,4.9h-26.7c-2.7,0-4.9-2.2-4.9-4.9v-78.6
			C-1337.7,125.5-1335.4,123.3-1332.7,123.3z"/>
		<path class="st2" d="M-1288.7,97.6c0-10.5,8.6-18.6,22-18.6s22,7.4,22,17.9c0,11.2-8.6,19.2-22,19.2
			C-1280.1,116.2-1288.7,108.1-1288.7,97.6z M-1280,123.3h26.7c2.7,0,4.9,2.2,4.9,4.9v78.6c0,2.7-2.2,4.9-4.9,4.9h-26.7
			c-2.7,0-4.9-2.2-4.9-4.9v-78.6C-1284.9,125.5-1282.7,123.3-1280,123.3z"/>
	</g>
	<ellipse class="st1" cx="-1319.1" cy="354.6" rx="140.1" ry="134.9"/>
	<g>
		<path class="st2" d="M-1387.8,299.3c0-10.5,8.6-18.6,22-18.6s22,7.4,22,17.9c0,11.1-8.6,19.2-22,19.2
			C-1379.2,317.9-1387.8,309.8-1387.8,299.3z M-1379.1,325h26.7c2.7,0,4.9,2.2,4.9,4.9v78.6c0,2.7-2.2,4.9-4.9,4.9h-26.7
			c-2.7,0-4.9-2.2-4.9-4.9v-78.6C-1384.1,327.2-1381.8,325-1379.1,325z"/>
		<path class="st2" d="M-1235.6,331.8l-31.6,78.6c-0.8,1.9-2.6,3.1-4.6,3.1h-31.2c-2,0-3.8-1.2-4.6-3.1l-31.6-78.6
			c-1.3-3.2,1.1-6.8,4.6-6.8h26.8c2.1,0,3.9,1.3,4.6,3.2l12.1,32.3c1.6,4.2,7.5,4.3,9.2,0.1l13.1-32.5c0.8-1.9,2.6-3.1,4.6-3.1h24
			C-1236.7,325-1234.3,328.5-1235.6,331.8z"/>
	</g>
	<ellipse class="st0" cx="-1538.9" cy="354.6" rx="140.1" ry="134.9"/>
	<g>
		<path class="st2" d="M-1546,391.8h-5.2c-2.7,0-4.9,2.2-4.9,4.9v9.5c0,2.7-2.2,4.9-4.9,4.9h-27.2c-2.7,0-4.9-2.2-4.9-4.9v-9.5
			c0-2.7-2.2-4.9-4.9-4.9h-48.8c-2.7,0-4.9-2.2-4.9-4.9v-17.8c0-1,0.3-2,0.9-2.8l45.7-66.1c0.9-1.3,2.4-2.1,4.1-2.1h27.3
			c3.9,0,6.3,4.4,4.1,7.7l-32.5,48.9c-2.2,3.3,0.2,7.7,4.1,7.7h1.2c2.7,0,4.9-2.2,4.9-4.9v-7.4c0-2.7,2.2-4.9,4.9-4.9h26
			c2.7,0,4.9,2.2,4.9,4.9v7.4c0,2.7,2.2,4.9,4.9,4.9h5.2c2.7,0,4.9,2.2,4.9,4.9v19.7C-1541.1,389.6-1543.3,391.8-1546,391.8z"/>
		<path class="st2" d="M-1430.9,391.8h-5.2c-2.7,0-4.9,2.2-4.9,4.9v9.5c0,2.7-2.2,4.9-4.9,4.9h-27.2c-2.7,0-4.9-2.2-4.9-4.9v-9.5
			c0-2.7-2.2-4.9-4.9-4.9h-48.8c-2.7,0-4.9-2.2-4.9-4.9v-17.8c0-1,0.3-2,0.9-2.8l45.7-66.1c0.9-1.3,2.4-2.1,4.1-2.1h27.3
			c3.9,0,6.3,4.4,4.1,7.7l-32.5,48.9c-2.2,3.3,0.2,7.7,4.1,7.7h1.2c2.7,0,4.9-2.2,4.9-4.9v-7.4c0-2.7,2.2-4.9,4.9-4.9h26
			c2.7,0,4.9,2.2,4.9,4.9v7.4c0,2.7,2.2,4.9,4.9,4.9h5.2c2.7,0,4.9,2.2,4.9,4.9v19.7C-1426,389.6-1428.2,391.8-1430.9,391.8z"/>
	</g>
	<ellipse class="st1" cx="-1538.6" cy="145.4" rx="140.1" ry="134.9"/>
	<g>
		<path class="st2" d="M-1540.8,164.4c0,19.4-15.5,38.8-51.7,38.8c-13.7,0-28.6-2.6-40.2-8c-2.5-1.1-3.6-4.1-2.4-6.5l8.8-19.1
			c1.2-2.5,4.1-3.6,6.6-2.4c8.6,4,17.8,5.9,26,5.9c8.6,0,14.7-2.9,14.7-8.7c0-4.9-3.7-7.8-13.4-7.8h-10.1c-2.7,0-4.9-2.2-4.9-4.9
			v-16.5c0-1.3,0.5-2.5,1.4-3.4l7-7.2c3.1-3.1,0.8-8.4-3.5-8.4h-23.7c-2.7,0-4.9-2.2-4.9-4.9V92.4c0-2.7,2.2-4.9,4.9-4.9h74.5
			c2.7,0,4.9,2.2,4.9,4.9v16.5c0,1.3-0.5,2.5-1.4,3.5l-14,14.2c-2.5,2.5-1.6,6.6,1.6,8C-1547.7,140.2-1540.8,151-1540.8,164.4z"/>
		<path class="st2" d="M-1441.6,164.4c0,19.4-15.5,38.8-51.7,38.8c-13.7,0-28.6-2.6-40.2-8c-2.5-1.1-3.6-4.1-2.4-6.5l8.8-19.1
			c1.2-2.5,4.1-3.6,6.6-2.4c8.6,4,17.8,5.9,26,5.9c8.6,0,14.7-2.9,14.7-8.7c0-4.9-3.7-7.8-13.4-7.8h-10.1c-2.7,0-4.9-2.2-4.9-4.9
			v-16.5c0-1.3,0.5-2.5,1.4-3.4l7-7.2c3.1-3.1,0.8-8.4-3.5-8.4h-23.7c-2.7,0-4.9-2.2-4.9-4.9V92.4c0-2.7,2.2-4.9,4.9-4.9h74.5
			c2.7,0,4.9,2.2,4.9,4.9v16.5c0,1.3-0.5,2.5-1.4,3.5l-14,14.2c-2.5,2.5-1.6,6.6,1.6,8C-1448.4,140.2-1441.6,151-1441.6,164.4z"/>
	</g>
	<path class="st0" d="M-1412.7,218.1V234h-12.2c25.7,28.3,63.4,46.3,105.6,46.3c49.6,0,93.1-24.8,118-62.2L-1412.7,218.1
		L-1412.7,218.1z"/>
</g>
<circle class="st0" cx="-918" cy="182.4" r="181.3"/>
<circle class="st3" cx="-1010.9" cy="170.9" r="93.1"/>
<circle class="st3" cx="-825.1" cy="170.9" r="93.1"/>
<path class="st0" d="M-754.9,500c-29.4-108.4-91.4-183.1-163.1-183.1s-133.7,74.7-163.1,183.1H-754.9z"/>
<g>
	<g>
		<path class="st0" d="M-1625.8,776.8c70.9,70.9,185.8,70.9,256.7,0l-256.7-256.7C-1696.7,591.1-1696.7,706-1625.8,776.8z"/>
		<circle class="st3" cx="-1571.4" cy="706.1" r="93.2"/>
	</g>
	<g>
		<path class="st0" d="M-1112.2,520.2L-1112.2,520.2l-256.7,256.7c0,0,0,0,0,0c70.9,70.9,185.8,70.9,256.7,0
			S-1041.3,591.1-1112.2,520.2z"/>
		<circle class="st3" cx="-1166.6" cy="706.1" r="93.2"/>
	</g>
	<path class="st0" d="M-1205.8,959.2C-1235.2,850.7-1297.2,776-1369,776s-133.8,74.8-163.2,183.2H-1205.8z"/>
</g>
<path class="st1" d="M-20,835.5c0-11.9-7.9-22.7-20.8-31.1c3.6-5.3,5.7-11.2,5.7-17.5c0-17.5-15.8-32.4-37.9-38.3
	c23.1-9.5,37.9-24.3,37.9-40.9c0-14.9-12-28.3-31.1-37.8c19.2-11.8,31.1-28.4,31.1-46.9c0-35.7-44.5-64.6-99.5-64.6
	c-44.2,0-81.7,18.7-94.6,44.6c-15.1-5.4-32.2-8.5-50.4-8.5c-6.7,0-13.2,0.4-19.6,1.2c-21.3-26.4-61.6-44.3-107.8-44.3
	c-44,0-82.6,16.2-104.6,40.5c-12.8-11.1-33-18.3-55.6-18.3c-28.3,0-52.6,11.2-63.6,27.2c-11.4-4-24.8-6.3-39.2-6.3
	c-26.8,0-50.3,8.1-63.5,20.2c-18.4-4-40.3-6.3-63.8-6.3c-65.2,0-118,17.7-118,39.6c0,0.1,0,0.1,0,0.2c-45.2,4.1-79.3,22.4-79.3,44.3
	c0,14.8,15.6,28,39.6,36.2c-0.5,3.2-0.9,6.4-0.9,9.7c0,0.5,0,0.9,0,1.4c-37.2,5.8-64.1,22.9-64.1,43c0,24.9,41.2,45.1,91.9,45.1
	c4.3,0,8.5-0.2,12.7-0.4c0,0.2,0,0.3,0,0.4c0,26.7,22.8,49,53.3,54.3c-1.7,3.9-2.7,8-2.7,12.3c0,23,26.8,41.7,59.9,41.7
	c14.4,0,27.5-3.5,37.8-9.4c11.7,13.9,34.5,23.3,60.8,23.3c17.2,0,33-4.1,45.1-10.8c22.1,10.8,56,17.7,94.1,17.7
	c4.2,0,8.5-0.1,12.6-0.3c-2.1,3.5-3.3,7.4-3.3,11.4c0,12.9,12.1,24,29.5,29c-3.7,5.8-5.9,13.3-5.9,21.6c0,18,10.6,32.6,23.6,32.6
	s23.6-14.6,23.6-32.6c0-7.6-1.9-14.7-5.1-20.2c12.2-2.4,22.4-7.7,28.7-14.6c29.4,15.8,71,25.8,117.2,25.8
	c60.2,0,112.6-16.8,140.3-41.7c0.5,0,0.9,0,1.4,0c61,0,110.5-15.9,110.5-35.4c0-8.8-10-16.8-26.5-23C-64.6,908.2-20,886.5-20,859.8
	c0-4.1-1.1-8-3-11.8C-21.1,844.1-20,839.9-20,835.5z"/>
<g>
	<path class="st4" d="M208.3,431.5c-54.5,0-105.5-10.8-143.8-30.5c-36.7-18.9-56.9-43.4-56.9-69c0-32.1,32.2-62.6,86.1-81.5
		l15.7-5.5l-14.5-8.1c-36.5-20.5-57.4-51.4-57.4-84.7c0-59,65.9-107,146.9-107c32.1,0,62.5,7.4,88.1,21.5l5,2.8l4-4.1
		C317,28.6,369.9,7.5,426.7,7.5c102.5,0,185.8,68.8,185.8,153.4c0,36.1-15.5,71.1-43.7,98.7l-4.6,4.5l3.7,5.2
		c9.7,13.8,14.6,28.5,14.6,43.8c0,57.1-69.7,103.6-155.3,103.6c-26.3,0-52.3-4.5-75.3-13.1l-3-1.1l-2.9,1.4
		C308.6,421.7,259.6,431.5,208.3,431.5z"/>
	<path class="st2" d="M426.7,15C525,15,605,80.5,605,160.9c0,17.3-3.7,34.2-10.9,50.3c-7.1,15.7-17.3,30.2-30.5,43.1l-9.1,8.9
		l7.3,10.4c8.8,12.5,13.3,25.7,13.3,39.4c0,24.6-14.6,48.1-41.1,66.2c-28.3,19.3-66.2,29.9-106.6,29.9c-25.4,0-50.6-4.4-72.7-12.6
		l-5.9-2.2l-5.7,2.7c-36.6,17.3-84.4,26.9-134.7,26.9c-53.3,0-103.2-10.5-140.4-29.7c-17.1-8.8-30.9-19.2-39.9-30.2
		C19.4,353.6,15,342.8,15,331.9c0-13.7,6.8-27.2,20.3-40c14.3-13.6,35.3-25.5,60.8-34.4l31.3-11l-28.9-16.3
		C81.9,221,68.2,208.9,59,195.4c-9.3-13.6-14-28.1-14-43.3c0-25.7,13.9-50.2,39.2-68.9c26.6-19.7,62.2-30.6,100.2-30.6
		c30.8,0,60,7.1,84.5,20.5l10,5.5l8-8.2c16.3-16.8,37.3-30.8,60.6-40.3C372.2,20.1,398.9,15,426.7,15 M426.7,0
		c-60.9,0-115.2,23.5-150.6,60.1c-25.6-14.1-57.4-22.4-91.7-22.4C99.1,37.7,29.9,89,29.9,152.2c0,37.3,24,70.3,61.2,91.2
		C36.1,262.7,0,295.1,0,331.9C0,391.1,93.2,439,208.3,439c54.5,0,104-10.8,141.1-28.3c23.1,8.6,49.7,13.5,77.9,13.5
		c89.9,0,162.8-49.7,162.8-111.1c0-17.2-5.7-33.5-16-48.1C602.7,237,620,200.6,620,160.9C620,72,533.5,0,426.7,0L426.7,0z"/>
</g>
</svg>
